<svg width="50" height="49" viewBox="0 0 50 49" fill="none" xmlns="http://www.w3.org/2000/svg">
<path d="M17.13 48.51L16.3774 49.1685L16.4213 49.2187L16.4715 49.2626L17.13 48.51ZM16.64 13.93H17.64V11.9037L16.0317 13.1363L16.64 13.93ZM7.05 21.28L6.44167 20.4863L6.43606 20.4906L7.05 21.28ZM5.72 21.63L5.50307 22.6062L5.51345 22.6085L5.52388 22.6106L5.72 21.63ZM4.6 20.86L3.80621 21.4682L3.81065 21.4739L4.6 20.86ZM0.47 15.47L-0.36205 16.0247L-0.343792 16.0521L-0.323772 16.0782L0.47 15.47ZM0.12 14.14L-0.86387 13.9611L-0.871046 14.0006L-0.875037 14.0405L0.12 14.14ZM0.96 12.95L1.4745 13.8075L1.52524 13.777L1.57203 13.7408L0.96 12.95ZM17.06 0.489998L16.5053 -0.342051L16.4759 -0.322454L16.448 -0.300833L17.06 0.489998ZM17.83 0.139999L18.0261 1.12058L18.0872 1.10837L18.1462 1.08868L17.83 0.139999ZM28.75 0.489998L28.0429 1.1971L28.0429 1.19711L28.75 0.489998ZM28.75 48.51L29.4571 49.2171L29.4807 49.1936L29.5026 49.1685L28.75 48.51ZM18.39 48C18.1817 48 17.992 47.9355 17.7885 47.7574L16.4715 49.2626C17.0146 49.7378 17.665 50 18.39 50V48ZM17.8826 47.8515C17.7045 47.648 17.64 47.4583 17.64 47.25H15.64C15.64 47.975 15.9022 48.6254 16.3774 49.1685L17.8826 47.8515ZM17.64 47.25V13.93H15.64V47.25H17.64ZM16.0317 13.1363L6.44169 20.4863L7.65831 22.0737L17.2483 14.7237L16.0317 13.1363ZM6.43606 20.4906C6.21513 20.6625 6.06217 20.6786 5.91612 20.6494L5.52388 22.6106C6.31117 22.768 7.04487 22.5508 7.66394 22.0694L6.43606 20.4906ZM5.93693 20.6538C5.79394 20.622 5.60804 20.5272 5.38935 20.2461L3.81065 21.4739C4.2453 22.0328 4.80606 22.4513 5.50307 22.6062L5.93693 20.6538ZM5.39377 20.2518L1.26377 14.8618L-0.323772 16.0782L3.80623 21.4682L5.39377 20.2518ZM1.30205 14.9153C1.13994 14.6721 1.09323 14.4576 1.11504 14.2395L-0.875037 14.0405C-0.94656 14.7557 -0.759943 15.4279 -0.36205 16.0247L1.30205 14.9153ZM1.10387 14.3189C1.14324 14.1024 1.24256 13.9467 1.4745 13.8075L0.445502 12.0925C-0.25589 12.5133 -0.716569 13.151 -0.86387 13.9611L1.10387 14.3189ZM1.57203 13.7408L17.672 1.28083L16.448 -0.300833L0.347966 12.1592L1.57203 13.7408ZM17.6147 1.32205C17.8277 1.18007 17.9622 1.13336 18.0261 1.12058L17.6339 -0.840582C17.2311 -0.760033 16.8523 -0.573404 16.5053 -0.342051L17.6147 1.32205ZM18.1462 1.08868C18.314 1.03276 18.5094 0.999996 18.74 0.999996V-1C18.3172 -1 17.906 -0.939432 17.5138 -0.808681L18.1462 1.08868ZM18.74 0.999996H27.49V-1H18.74V0.999996ZM27.49 0.999996C27.7704 0.999996 27.9254 1.07964 28.0429 1.1971L29.4571 -0.217106C28.9212 -0.752979 28.2363 -1 27.49 -1V0.999996ZM28.0429 1.19711C28.1604 1.31457 28.24 1.46958 28.24 1.75H30.24C30.24 1.00375 29.993 0.31876 29.4571 -0.21711L28.0429 1.19711ZM28.24 1.75V47.25H30.24V1.75H28.24ZM28.24 47.25C28.24 47.4583 28.1755 47.648 27.9974 47.8515L29.5026 49.1685C29.9778 48.6254 30.24 47.975 30.24 47.25H28.24ZM28.0429 47.8029C27.9254 47.9204 27.7704 48 27.49 48V50C28.2363 50 28.9212 49.753 29.4571 49.2171L28.0429 47.8029ZM27.49 48H18.39V50H27.49V48ZM38.0649 48.51L37.3123 49.1685L37.3343 49.1936L37.3578 49.2171L38.0649 48.51ZM38.0649 37.1L38.772 37.8071L38.0649 37.1ZM49.4049 37.1L48.6978 37.8071L48.7214 37.8307L48.7464 37.8526L49.4049 37.1ZM49.4049 48.51L48.6978 47.8029L49.4049 48.51ZM39.3249 48C39.0445 48 38.8895 47.9204 38.772 47.8029L37.3578 49.2171C37.8937 49.753 38.5787 50 39.3249 50V48ZM38.8175 47.8515C38.6394 47.648 38.5749 47.4583 38.5749 47.25H36.5749C36.5749 47.975 36.8371 48.6254 37.3123 49.1685L38.8175 47.8515ZM38.5749 47.25V38.36H36.5749V47.25H38.5749ZM38.5749 38.36C38.5749 38.0796 38.6546 37.9246 38.772 37.8071L37.3578 36.3929C36.8219 36.9288 36.5749 37.6137 36.5749 38.36H38.5749ZM38.772 37.8071C38.8895 37.6896 39.0445 37.61 39.3249 37.61V35.61C38.5787 35.61 37.8937 35.857 37.3578 36.3929L38.772 37.8071ZM39.3249 37.61H48.2149V35.61H39.3249V37.61ZM48.2149 37.61C48.4194 37.61 48.5608 37.6701 48.6978 37.8071L50.112 36.3929C49.5957 35.8766 48.9438 35.61 48.2149 35.61V37.61ZM48.7464 37.8526C48.8943 37.9819 48.9649 38.1236 48.9649 38.36H50.9649C50.9649 37.5698 50.6623 36.8714 50.0634 36.3474L48.7464 37.8526ZM48.9649 38.36V47.25H50.9649V38.36H48.9649ZM48.9649 47.25C48.9649 47.4158 48.9105 47.5902 48.6978 47.8029L50.112 49.2171C50.646 48.6831 50.9649 48.0176 50.9649 47.25H48.9649ZM48.6978 47.8029C48.5608 47.9399 48.4194 48 48.2149 48V50C48.9438 50 49.5957 49.7334 50.112 49.2171L48.6978 47.8029ZM48.2149 48H39.3249V50H48.2149V48Z" fill="#EAEAEA"/>
</svg>
